<svg xmlns="http://www.w3.org/2000/svg" width="60" height="42" viewBox="0 0 60 42" fill="none"><path fill="#00BCFF" d="M30.007.78C13.75.78.57 9.21.57 19.613s13.179 19.65 29.437 19.65c16.259 0 29.437-9.25 29.437-19.65C59.444 9.212 46.265.78 30.007.78Z"/><path fill="#fff" d="M20.429 13.791c-.015.03-.302.327-.116.566.455.582 1.861.915 3.283.596.847-.19 1.932-1.054 2.983-1.888a11.95 11.95 0 0 1 3.405-2.17 3.891 3.891 0 0 1 2.483-.066 7.637 7.637 0 0 1 2.264 1.321c1.973 1.484 9.909 8.412 11.28 9.609a76.228 76.228 0 0 1 13.035-4.095c-.58-3.556-2.719-6.945-6-9.609-4.572 1.92-10.533 3.07-15.998.403a15.12 15.12 0 0 0-5.901-1.343c-4.335.101-6.213 1.977-8.2 3.963l-2.518 2.713Z"/><path fill="#fff" d="M45.689 22.513c-.094-.084-9.33-8.167-11.424-9.74a5.125 5.125 0 0 0-2.592-1.231 3.552 3.552 0 0 0-1.233.118 11.149 11.149 0 0 0-3.377 2.013c-1.17.932-2.273 1.81-3.298 2.039a5.334 5.334 0 0 1-3.634-.546 1.608 1.608 0 0 1-.604-.661 1.119 1.119 0 0 1 .31-1.207l2.549-2.758c.297-.295.595-.592.901-.883-.786.119-1.563.293-2.324.524-.877.29-1.789.461-2.71.505a25.853 25.853 0 0 1-2.768-.432 45.377 45.377 0 0 1-7.946-2.66c-3.625 2.699-5.985 6.011-6.685 9.727.52.138 1.885.449 2.238.527 8.202 1.824 10.756 3.703 11.22 4.095a2.715 2.715 0 0 1 4.255.25 3.094 3.094 0 0 1 1.955-.687c.4.004.796.073 1.173.205a2.695 2.695 0 0 1 1.651 1.492 2.724 2.724 0 0 1 1.141-.243c.471.006.935.109 1.365.301a2.912 2.912 0 0 1 1.61 3.254 3.256 3.256 0 0 1 3.578 3.235c0 .537-.134 1.065-.39 1.536.85.52 1.83.782 2.825.757a1.8 1.8 0 0 0 1.32-.576c.082-.116.168-.25.088-.348l-2.314-2.57s-.38-.36-.255-.5c.13-.142.365.063.533.202 1.177.983 2.614 2.468 2.614 2.468.026.016.12.204.652.3a2.403 2.403 0 0 0 1.83-.427c.147-.124.282-.262.402-.412a.144.144 0 0 1-.027.021 1.229 1.229 0 0 0-.066-1.524l-2.702-3.034s-.387-.358-.254-.5c.117-.125.365.063.535.204.855.715 2.064 1.927 3.222 3.063a2.204 2.204 0 0 0 2.593-.09 1.858 1.858 0 0 0 .959-1.693 1.932 1.932 0 0 0-.57-1.128l-3.69-3.71s-.391-.334-.253-.502c.114-.142.365.062.532.201 1.175.984 4.357 3.902 4.357 3.902a2.24 2.24 0 0 0 2.504-.05 1.67 1.67 0 0 0 .822-1.324 1.954 1.954 0 0 0-.618-1.503Z"/><path fill="#fff" d="M27.788 27.216c-.433.06-.861.156-1.28.284-.046-.03.035-.26.088-.392.056-.132.81-2.4-1.028-3.187a2.167 2.167 0 0 0-2.56.382c-.078.08-.113.074-.121-.028a2.028 2.028 0 0 0-1.425-1.884 2.781 2.781 0 0 0-3.132 1.117 2.005 2.005 0 1 0-.596 1.706c.012.01.016.03.01.068a2.647 2.647 0 0 0 1.654 3.043 1.973 1.973 0 0 0 1.941-.3c.16-.112.186-.064.163.086-.068.465.019 1.461 1.415 2.026a1.793 1.793 0 0 0 2.103-.39c.18-.163.23-.137.238.116a2.533 2.533 0 1 0 2.53-2.647Z"/><path fill="#0A0080" d="M30.002 0C13.434 0 .003 8.813.003 19.622L0 20.772C0 32.24 11.739 41.527 29.998 41.527 48.368 41.528 60 32.242 60 20.773v-1.15C60 8.812 46.57 0 30.002 0Zm28.645 17.448a68.741 68.741 0 0 0-12.601 4.096c-2.846-2.483-9.422-8.202-11.203-9.538a7.837 7.837 0 0 0-2.322-1.351 3.851 3.851 0 0 0-1.14-.178c-.492.006-.98.088-1.447.244a11.854 11.854 0 0 0-3.408 2.157l-.057.045c-1.033.822-2.102 1.672-2.91 1.852a4.93 4.93 0 0 1-1.077.12 2.766 2.766 0 0 1-2.024-.65c-.05-.065-.017-.17.1-.318l.015-.02 2.504-2.699c1.961-1.96 3.813-3.812 8.076-3.91.071-.002.143-.004.213-.004 1.936.08 3.839.53 5.605 1.328a17.361 17.361 0 0 0 7.638 1.832 19.936 19.936 0 0 0 8.367-2.001c3.041 2.558 5.058 5.638 5.671 8.995Zm-28.64-16.29c8.794 0 16.663 2.522 21.954 6.492a18.452 18.452 0 0 1-7.347 1.665 16.256 16.256 0 0 1-7.146-1.72 16.078 16.078 0 0 0-6.1-1.441c-.08 0-.161 0-.24.003-2.54-.038-5.008.839-6.956 2.469-1.179.062-2.345.275-3.47.633a9.41 9.41 0 0 1-2.445.469c-.314 0-.878-.029-.929-.031a47.559 47.559 0 0 1-8.763-2.425c5.28-3.753 12.93-6.113 21.442-6.113ZM7.527 8.056c3.659 1.497 8.098 2.652 9.502 2.743.391.026.808.07 1.226.071a10.41 10.41 0 0 0 2.76-.513 20.914 20.914 0 0 1 1.734-.429c-.165.161-.33.325-.495.49l-2.543 2.752a1.278 1.278 0 0 0-.348 1.405c.148.306.38.563.669.742a5.297 5.297 0 0 0 2.7.685c.361.003.722-.035 1.076-.113 1.067-.239 2.185-1.13 3.37-2.072a11.21 11.21 0 0 1 3.312-1.982c.301-.08.611-.123.923-.127.08 0 .16.005.239.015a4.98 4.98 0 0 1 2.505 1.195c2.088 1.57 11.327 9.652 11.418 9.732a1.781 1.781 0 0 1 .554 1.357 1.479 1.479 0 0 1-.738 1.181c-.36.24-.78.371-1.212.378-.38 0-.751-.108-1.072-.31-.033-.028-3.199-2.931-4.364-3.907a.977.977 0 0 0-.547-.292.303.303 0 0 0-.242.114c-.184.226.022.539.264.744l3.697 3.719c.276.269.456.62.512 1.002a1.689 1.689 0 0 1-.878 1.532c-.385.271-.84.422-1.31.434-.377 0-.744-.112-1.056-.32l-.53-.523c-.97-.954-1.97-1.94-2.703-2.552a.983.983 0 0 0-.552-.286.31.31 0 0 0-.233.1c-.083.093-.141.26.068.536.056.075.119.144.187.208l2.697 3.031a1.034 1.034 0 0 1 .061 1.294l-.095.12a2.994 2.994 0 0 1-.252.243c-.381.28-.845.427-1.318.417-.122.001-.244-.01-.365-.03a.917.917 0 0 1-.532-.224l-.033-.035c-.147-.152-1.507-1.54-2.632-2.48a.932.932 0 0 0-.525-.28.323.323 0 0 0-.244.108c-.222.244.112.608.254.742l2.3 2.538a.52.52 0 0 1-.086.155c-.083.114-.361.394-1.196.498-.101.013-.203.02-.306.019a5.284 5.284 0 0 1-2.253-.669 3.432 3.432 0 0 0-3.227-4.893 3.048 3.048 0 0 0-1.742-3.224 3.612 3.612 0 0 0-1.435-.316 2.92 2.92 0 0 0-1.052.19 2.89 2.89 0 0 0-1.681-1.427 3.774 3.774 0 0 0-1.232-.216 3.245 3.245 0 0 0-1.92.614 2.891 2.891 0 0 0-4.308-.242c-.716-.548-3.558-2.353-11.164-4.08a40.035 40.035 0 0 1-1.708-.47c.714-3.415 2.883-6.534 6.101-9.092Zm14.109 19.8-.082-.073h-.084a.411.411 0 0 0-.232.094 1.954 1.954 0 0 1-1.137.405 1.767 1.767 0 0 1-.634-.123 2.46 2.46 0 0 1-1.538-2.852.242.242 0 0 0-.078-.233l-.124-.102-.117.111a1.83 1.83 0 1 1 .543-1.55l.063.492.27-.416a2.544 2.544 0 0 1 2.926-1.041 1.85 1.85 0 0 1 1.296 1.723c.02.239.19.25.222.25a.297.297 0 0 0 .212-.11 1.846 1.846 0 0 1 1.348-.57c.348.008.692.086 1.01.228 1.723.74.942 2.93.932 2.953-.148.363-.154.523-.015.615l.068.032h.05c.116-.012.228-.042.334-.087a2.97 2.97 0 0 1 .92-.203 2.352 2.352 0 0 1 0 4.703 2.333 2.333 0 0 1-2.346-2.244c-.004-.107-.015-.393-.258-.393a.445.445 0 0 0-.285.15c-.3.32-.714.506-1.152.52a2.024 2.024 0 0 1-.76-.165c-1.339-.543-1.357-1.462-1.303-1.832a.332.332 0 0 0-.05-.281Zm8.371 10.212c-15.93 0-28.845-8.263-28.845-18.454.003-.408.026-.815.07-1.22.127.03 1.392.333 1.654.392 7.77 1.726 10.338 3.521 10.772 3.86a2.912 2.912 0 0 0 3.22 3.983 3.393 3.393 0 0 0 2.197 2.537c.33.13.682.198 1.037.2.223.001.446-.026.662-.082a3.377 3.377 0 0 0 2.951 1.926c.303 0 .604-.053.889-.158a3.427 3.427 0 0 0 5.634 1.087 6.45 6.45 0 0 0 2.906.868c.147 0 .294-.01.44-.028a2.662 2.662 0 0 0 1.971-.964 1.51 1.51 0 0 0 .122-.198c.302.092.615.141.93.146a3.138 3.138 0 0 0 1.879-.671 2.587 2.587 0 0 0 1.11-1.635c.207.042.418.063.63.063a3.484 3.484 0 0 0 1.929-.612 2.78 2.78 0 0 0 1.384-2.48c.21.044.423.066.637.066a3.33 3.33 0 0 0 1.807-.556 2.646 2.646 0 0 0 1.258-2.046 2.78 2.78 0 0 0-.4-1.652 74.67 74.67 0 0 1 11.964-3.747c.024.306.037.613.037.921 0 10.191-12.914 18.454-28.845 18.454Z"/></svg>